<svg width="50" height="50" viewBox="0 0 50 50" fill="none" xmlns="http://www.w3.org/2000/svg">
<path fill-rule="evenodd" clip-rule="evenodd" d="M42.5 8.75H7.5C6.83696 8.75 6.20107 9.01339 5.73223 9.48223C5.26339 9.95107 5 10.587 5 11.25V38.75C5 39.413 5.26339 40.0489 5.73223 40.5178C6.20107 40.9866 6.83696 41.25 7.5 41.25H42.5C43.163 41.25 43.7989 40.9866 44.2678 40.5178C44.7366 40.0489 45 39.413 45 38.75V11.25C45 10.587 44.7366 9.95107 44.2678 9.48223C43.7989 9.01339 43.163 8.75 42.5 8.75V8.75ZM10 36.25V13.75H40V36.25H10Z" fill="black"/>
<path fill-rule="evenodd" clip-rule="evenodd" d="M44.12 13.1525L26.5075 28.1525C26.0533 28.5391 25.4758 28.7506 24.8794 28.7487C24.283 28.7469 23.7068 28.5319 23.255 28.1425L5.8675 13.1425C4.1125 11.63 5.1825 8.75 7.5 8.75H42.5C44.825 8.75 45.89 11.645 44.12 13.1525ZM14.225 13.75L24.9 22.9575L35.705 13.75H14.225Z" fill="black"/>
</svg>
