<svg width="50" height="50" viewBox="0 0 50 50" fill="none" xmlns="http://www.w3.org/2000/svg">
<path d="M32.0875 43.75V29.2375H36.9479L37.675 23.5958H32.0875V19.9958C32.0875 18.3625 32.5417 17.2479 34.8833 17.2479H37.8708V12.2021C36.4246 12.0486 34.971 11.9742 33.5167 11.9792C29.2104 11.9792 26.2625 14.6083 26.2625 19.4375V23.5958H21.3917V29.2375H26.2625V43.75H8.33333C7.7808 43.75 7.25089 43.5305 6.86019 43.1398C6.46949 42.7491 6.25 42.2192 6.25 41.6667V8.33333C6.25 7.7808 6.46949 7.25089 6.86019 6.86019C7.25089 6.46949 7.7808 6.25 8.33333 6.25H41.6667C42.2192 6.25 42.7491 6.46949 43.1398 6.86019C43.5305 7.25089 43.75 7.7808 43.75 8.33333V41.6667C43.75 42.2192 43.5305 42.7491 43.1398 43.1398C42.7491 43.5305 42.2192 43.75 41.6667 43.75H32.0875Z" fill="black"/>
</svg>
