<svg width="50" height="50" viewBox="0 0 50 50" fill="none" xmlns="http://www.w3.org/2000/svg">
<path d="M25 19.8334C23.9781 19.8334 22.9792 20.1364 22.1296 20.7042C21.2799 21.2719 20.6177 22.0788 20.2266 23.0229C19.8356 23.967 19.7333 25.0058 19.9326 26.008C20.132 27.0103 20.624 27.9309 21.3466 28.6535C22.0692 29.376 22.9898 29.8681 23.992 30.0675C24.9943 30.2668 26.0331 30.1645 26.9772 29.7735C27.9213 29.3824 28.7282 28.7202 29.2959 27.8705C29.8637 27.0209 30.1667 26.0219 30.1667 25.0001C30.1667 24.3216 30.033 23.6497 29.7734 23.0229C29.5137 22.396 29.1332 21.8265 28.6534 21.3467C28.1736 20.8669 27.604 20.4864 26.9772 20.2267C26.3504 19.9671 25.6785 19.8334 25 19.8334ZM45.6875 14.7292C45.6765 13.1204 45.3803 11.5263 44.8125 10.0209C44.3943 8.91937 43.7473 7.91903 42.9142 7.08588C42.0811 6.25274 41.0807 5.60574 39.9792 5.18758C38.4738 4.6198 36.8797 4.32354 35.2708 4.31258C32.5833 4.16675 31.7917 4.16675 25 4.16675C18.2083 4.16675 17.4167 4.16675 14.7292 4.31258C13.1203 4.32354 11.5262 4.6198 10.0208 5.18758C8.9193 5.60574 7.91895 6.25274 7.08581 7.08588C6.25267 7.91903 5.60567 8.91937 5.18751 10.0209C4.61972 11.5263 4.32347 13.1204 4.3125 14.7292C4.16667 17.4167 4.16667 18.2084 4.16667 25.0001C4.16667 31.7917 4.16667 32.5834 4.3125 35.2709C4.33493 36.8854 4.63078 38.4844 5.18751 40.0001C5.60381 41.0966 6.25027 42.0911 7.08334 42.9167C7.91291 43.7549 8.9154 44.4019 10.0208 44.8126C11.5262 45.3804 13.1203 45.6766 14.7292 45.6876C17.4167 45.8334 18.2083 45.8334 25 45.8334C31.7917 45.8334 32.5833 45.8334 35.2708 45.6876C36.8797 45.6766 38.4738 45.3804 39.9792 44.8126C41.0846 44.4019 42.0871 43.7549 42.9167 42.9167C43.7497 42.0911 44.3962 41.0966 44.8125 40.0001C45.3797 38.4873 45.6759 36.8865 45.6875 35.2709C45.8333 32.5834 45.8333 31.7917 45.8333 25.0001C45.8333 18.2084 45.8333 17.4167 45.6875 14.7292ZM40.3958 31.3959C40.329 32.6815 40.0546 33.9479 39.5833 35.1459C39.1789 36.1453 38.5776 37.0531 37.8153 37.8154C37.053 38.5777 36.1452 39.179 35.1458 39.5834C33.9365 40.0284 32.6631 40.2746 31.375 40.3126H18.625C17.3369 40.2746 16.0635 40.0284 14.8542 39.5834C13.8211 39.1995 12.8881 38.587 12.125 37.7917C11.3701 37.0444 10.7872 36.1415 10.4167 35.1459C9.96992 33.9378 9.73044 32.6629 9.70834 31.3751V18.6251C9.73044 17.3372 9.96992 16.0623 10.4167 14.8542C10.8006 13.8211 11.4131 12.8882 12.2083 12.1251C12.959 11.3743 13.861 10.7919 14.8542 10.4167C16.0635 9.97176 17.3369 9.72552 18.625 9.68758H31.375C32.6631 9.72552 33.9365 9.97176 35.1458 10.4167C36.179 10.8007 37.1119 11.4132 37.875 12.2084C38.6299 12.9558 39.2128 13.8587 39.5833 14.8542C40.0283 16.0636 40.2746 17.337 40.3125 18.6251V25.0001C40.3125 29.2917 40.4583 29.7292 40.3958 31.3751V31.3959ZM37.0625 15.8959C36.8145 15.223 36.4234 14.6118 35.9162 14.1047C35.4091 13.5975 34.798 13.2065 34.125 12.9584C33.201 12.6381 32.2278 12.483 31.25 12.5001H18.75C17.7672 12.5097 16.7939 12.6931 15.875 13.0417C15.2124 13.2785 14.6077 13.6536 14.1012 14.1422C13.5947 14.6307 13.198 15.2214 12.9375 15.8751C12.635 16.8029 12.4871 17.7742 12.5 18.7501V31.2501C12.5207 32.2317 12.7037 33.2032 13.0417 34.1251C13.2897 34.798 13.6808 35.4092 14.1879 35.9163C14.6951 36.4234 15.3062 36.8145 15.9792 37.0626C16.8681 37.3895 17.8034 37.5723 18.75 37.6042H31.25C32.2328 37.5946 33.2061 37.4113 34.125 37.0626C34.798 36.8145 35.4091 36.4234 35.9162 35.9163C36.4234 35.4092 36.8145 34.798 37.0625 34.1251C37.4112 33.2062 37.5946 32.2329 37.6042 31.2501V18.7501C37.6048 17.7663 37.4211 16.7912 37.0625 15.8751V15.8959ZM25 32.9584C23.9559 32.9584 22.922 32.7524 21.9576 32.3522C20.9933 31.952 20.1173 31.3655 19.38 30.6262C18.6426 29.8869 18.0584 29.0095 17.6607 28.044C17.2631 27.0786 17.0598 26.0442 17.0625 25.0001C17.0625 23.4252 17.5298 21.8857 18.4052 20.5765C19.2806 19.2673 20.5247 18.2473 21.9801 17.6456C23.4356 17.0438 25.0368 16.8875 26.5811 17.1962C28.1254 17.505 29.5434 18.265 30.6556 19.3801C31.7678 20.4952 32.5241 21.9152 32.8288 23.4603C33.1335 25.0054 32.9729 26.6062 32.3674 28.0601C31.7618 29.5139 30.7386 30.7554 29.4271 31.6273C28.1156 32.4993 26.5749 32.9625 25 32.9584ZM33.3333 18.6042C32.8728 18.5555 32.4466 18.338 32.1368 17.9938C31.8271 17.6495 31.6557 17.2028 31.6557 16.7397C31.6557 16.2766 31.8271 15.8298 32.1368 15.4856C32.4466 15.1413 32.8728 14.9238 33.3333 14.8751C33.7939 14.9238 34.2201 15.1413 34.5298 15.4856C34.8396 15.8298 35.011 16.2766 35.011 16.7397C35.011 17.2028 34.8396 17.6495 34.5298 17.9938C34.2201 18.338 33.7939 18.5555 33.3333 18.6042Z" fill="black"/>
</svg>
