<svg width="50" height="50" viewBox="0 0 50 50" fill="none" xmlns="http://www.w3.org/2000/svg">
<path d="M13.7917 22.4792C16.7917 28.375 21.625 33.2083 27.5208 36.2083L32.1042 31.625C32.6875 31.0417 33.5 30.875 34.2292 31.1042C36.5625 31.875 39.0625 32.2917 41.6667 32.2917C42.2192 32.2917 42.7491 32.5112 43.1398 32.9019C43.5305 33.2926 43.75 33.8225 43.75 34.375V41.6667C43.75 42.2192 43.5305 42.7491 43.1398 43.1398C42.7491 43.5305 42.2192 43.75 41.6667 43.75C32.2736 43.75 23.2652 40.0186 16.6233 33.3767C9.98139 26.7348 6.25 17.7264 6.25 8.33333C6.25 7.7808 6.46949 7.25089 6.86019 6.86019C7.25089 6.46949 7.7808 6.25 8.33333 6.25H15.625C16.1775 6.25 16.7074 6.46949 17.0981 6.86019C17.4888 7.25089 17.7083 7.7808 17.7083 8.33333C17.7083 10.9375 18.125 13.4375 18.8958 15.7708C19.125 16.5 18.9583 17.3125 18.375 17.8958L13.7917 22.4792Z" fill="black"/>
</svg>
